<svg width="28" height="28" viewBox="0 0 28 28" fill="none" xmlns="http://www.w3.org/2000/svg">
<path d="M25.5695 1.75565C25.8553 1.75565 26.0561 1.80923 26.1613 1.84963C26.2866 2.18513 26.4558 3.38747 25.2154 4.6311L18.8878 10.9704L18.9334 11.7573C19.0298 13.4032 19.2078 16.3524 19.3612 18.881C19.4962 21.132 19.625 23.2574 19.6338 23.4383C19.6382 23.563 19.6399 23.592 19.5242 23.7316C19.2656 24.046 18.7826 24.58 18.3767 25.0227C17.7455 23.3197 16.42 19.7241 15.688 17.7111L14.7474 15.1211L12.8013 17.0709L9.22281 20.5172L8.724 21.0152L8.70822 21.7195C8.69594 22.2816 8.69858 23.2916 8.70033 24.1813C8.70208 24.8014 8.70384 25.3652 8.69945 25.6752C8.69156 25.6902 8.81868 25.7068 8.80728 25.727C8.73101 25.6041 8.64861 25.4724 8.56182 25.3345C7.84034 24.1813 6.84185 22.5872 6.53765 22.0893L6.31499 21.7248L5.94943 21.5035C4.62044 20.699 3.14768 19.7706 2.24912 19.1901C2.2798 19.1725 2.30523 19.2674 2.32627 19.256H2.385C2.66816 19.256 3.13541 19.2621 3.65876 19.2692C4.3443 19.2788 5.121 19.2894 5.71536 19.2894C5.94329 19.2894 6.14579 19.2876 6.30885 19.2841L7.01279 19.2683L7.51073 18.7703L10.9551 15.2107L12.8942 13.2688L10.3212 12.3203C8.38737 11.6072 4.68356 10.2221 2.95043 9.56959C3.39489 9.15944 3.93052 8.67288 4.2426 8.41291C4.32939 8.34089 4.39777 8.30401 4.44511 8.30401L4.50735 8.30576C4.70109 8.31542 7.10133 8.47175 9.4218 8.62457C11.8852 8.78617 14.6659 8.9671 16.2473 9.0681L17.0372 9.11728L23.3665 2.7762C24.2555 1.88652 25.1286 1.7539 25.5704 1.7539L25.5695 1.75565ZM25.5695 0C24.5342 0 23.2622 0.398733 22.127 1.53697L16.3578 7.31683C13.1081 7.11044 4.78525 6.55977 4.57836 6.55362C4.54154 6.55186 4.49595 6.55011 4.44511 6.55011C4.16371 6.55011 3.67892 6.60368 3.12664 7.06126C2.47792 7.59788 1.12702 8.87224 1.12702 8.87224C0.800909 9.19984 0.6361 9.6056 0.675549 9.98764C0.699218 10.2177 0.824578 10.6384 1.38914 10.8598C1.73278 10.9941 7.19426 13.0423 9.71636 13.9715L6.27203 17.5311C6.11949 17.5346 5.93014 17.5363 5.71712 17.5363C4.6669 17.5363 3.03898 17.5021 2.38588 17.5021C2.29909 17.5021 2.22983 17.5021 2.18074 17.5038C1.98175 17.51 1.5706 17.4116 0.486194 18.3198L0.40905 18.3918C0.0838154 18.7176 0.00754758 19.0426 0.000534448 19.2577C-0.00647869 19.4791 0.0522563 19.7979 0.372231 20.0543C0.564215 20.2098 3.02495 21.788 5.04386 23.0097C5.52776 23.801 7.75443 27.3466 7.87103 27.5389C8.04109 27.8261 8.31811 27.9903 8.65036 28H8.67754C9.00014 28 9.33151 27.8393 9.65587 27.524C10.5737 26.449 10.4466 26.0037 10.451 25.8158C10.4659 25.2291 10.4413 22.7436 10.4615 21.7582L14.0391 18.311C14.9534 20.8272 16.9522 26.2426 17.0863 26.5877C17.309 27.1542 17.7289 27.2781 17.9585 27.3018C17.9962 27.3062 18.0348 27.3079 18.0725 27.3079C18.4188 27.3079 18.7765 27.1446 19.071 26.8512C19.071 26.8512 20.3378 25.504 20.876 24.8488C21.4143 24.1936 21.3941 23.6341 21.3836 23.3707C21.3792 23.188 20.8716 14.8945 20.6831 11.6563L26.4541 5.87472C28.4993 3.82485 28.1741 1.35516 27.4149 0.595464C27.0791 0.257332 26.4006 0.0026348 25.5713 0.0026348L25.5695 0Z" fill="#FBBC05"/>
</svg>
