<svg width="100" height="92" viewBox="0 0 100 92" fill="none" xmlns="http://www.w3.org/2000/svg">
<path d="M37.4983 3.04044C25.78 -0.204433 19.7402 0.447246 10.1343 7.09436L16.2152 12.1618C25.2006 7.4836 30.5449 8.1163 40.5387 14.1887L53.7139 0L37.4983 3.04044Z" fill="#FBBC05"/>
<path d="M20.3062 66.1489C22.8265 78.044 26.1882 83.1039 36.5142 88.5659L38.2092 80.834C29.9166 75.0154 28.0153 69.9808 28.799 58.313L10.1351 53.1588L20.3062 66.1489Z" fill="#FBBC05"/>
<path d="M83.5456 49.1884C92.2683 40.7173 94.7588 35.1764 93.8786 23.5281L86.4326 26.2138C85.9275 36.3314 82.6804 40.623 72.3894 46.177L77.9729 64.717L83.5456 49.1884Z" fill="#FBBC05"/>
<path d="M77.0246 12.1618L83.1055 7.09442C57.6772 -6.46375 32.5958 11.8357 42.5662 38.5123C38.3714 53.443 3.28919 46.7195 8.10786 26.3506L0 23.31C1.37117 56.1025 31.1227 63.0352 47.6336 43.5797C67.8917 46.519 72.2064 66.5438 54.728 79.0515L56.755 87.1594C80.396 70.6858 78.9357 44.8716 49.6606 35.4719C43.8063 16.1624 60.2967 4.24288 77.0246 12.1618Z" fill="#FBBC05"/>
<ellipse cx="7.09436" cy="15.9133" rx="7.09436" ry="7.09437" fill="#FBBC05"/>
<ellipse cx="86.1451" cy="15.9133" rx="7.09436" ry="7.09437" fill="#FBBC05"/>
<circle cx="46.3178" cy="84.1188" r="7.09436" fill="#FBBC05"/>
</svg>
